<svg width="267" height="44" viewBox="0 0 267 44" fill="none" xmlns="http://www.w3.org/2000/svg">
<path fill-rule="evenodd" clip-rule="evenodd" d="M7.3512 34.1573C7.3512 34.1573 15.0271 37.297 20.8409 32.0029C24.208 28.9498 23.0062 25.5395 20.9275 24.5326C20.9275 24.5326 25.767 22.6055 26.698 28.8416C27.5425 34.5038 17.6688 38.0549 19.3252 43.4031C19.3252 43.4031 14.6915 42.4937 15.2004 38.4771C15.2004 38.4771 9.84128 38.9101 7.3512 34.1573Z" fill="url(#paint0_linear_45_50)"/>
<path fill-rule="evenodd" clip-rule="evenodd" d="M24.2729 38.1957C24.2729 38.1957 30.7687 33.0531 29.0148 25.388C28.008 20.9708 24.4461 20.3429 22.5515 21.6637C22.5515 21.6637 23.2443 16.4995 29.1339 18.7514C34.493 20.7976 32.7391 31.1369 38.2173 32.317C38.2173 32.317 35.1426 35.9113 31.9055 33.497C31.9055 33.497 29.6536 38.3689 24.2729 38.1957Z" fill="url(#paint1_linear_45_50)"/>
<path fill-rule="evenodd" clip-rule="evenodd" d="M36.1063 25.4314C36.1063 25.4314 34.8071 17.2466 27.2719 15.0271C22.9197 13.7388 20.6245 16.532 20.8518 18.8272C20.8518 18.8272 16.6945 15.6767 21.5447 11.6493C25.9402 7.98996 34.1034 14.5833 37.8168 10.3934C37.8168 10.3934 39.43 14.8323 35.749 16.4779C35.749 16.4779 38.8887 20.8301 36.1063 25.4314Z" fill="url(#paint2_linear_45_50)"/>
<path fill-rule="evenodd" clip-rule="evenodd" d="M30.7905 8.86685C30.7905 8.86685 23.0171 5.98702 17.3873 11.4544C14.1286 14.6157 15.4277 17.9935 17.5389 18.9246C17.5389 18.9246 12.7644 21.0033 11.6385 14.7997C10.5992 9.15917 20.3538 5.29413 18.5241 0C18.5241 0 23.1903 0.768677 22.8114 4.78529C22.8114 4.78529 28.138 4.18983 30.7905 8.86685Z" fill="url(#paint3_linear_45_50)"/>
<path fill-rule="evenodd" clip-rule="evenodd" d="M13.7387 5.36987C13.7387 5.36987 7.41611 10.729 9.419 18.3291C10.5774 22.7138 14.161 23.2335 16.0015 21.8477C16.0015 21.8477 15.471 27.0336 9.50561 24.9766C4.09239 23.1144 5.49983 12.7102 0 11.7142C0 11.7142 2.94479 8.03318 6.26851 10.3284C6.26851 10.3284 8.35801 5.39153 13.7387 5.36987Z" fill="url(#paint4_linear_45_50)"/>
<path fill-rule="evenodd" clip-rule="evenodd" d="M2.3278 18.524C2.3278 18.524 3.89764 26.6655 11.4978 28.6468C15.8933 29.7835 18.0911 26.9145 17.7988 24.6302C17.7988 24.6302 22.0536 27.6291 17.3441 31.8297C13.0568 35.619 4.68797 29.2855 1.10442 33.6053C1.10442 33.6053 -0.660294 29.2206 2.96656 27.4667C2.96656 27.4667 -0.292194 23.2119 2.3278 18.524Z" fill="url(#paint5_linear_45_50)"/>
<path d="M57.3613 32V16.7119H61.2061V32H57.3613ZM61.2061 23.4629V19.5879C61.7308 18.6797 62.3464 17.9229 63.0527 17.3174C63.7793 16.7119 64.5967 16.4092 65.5049 16.4092C66.07 16.4092 66.5645 16.5 66.9883 16.6816V21.0107C66.6855 20.8291 66.3626 20.6979 66.0195 20.6172C65.6966 20.5163 65.3434 20.4658 64.96 20.4658C64.0921 20.4658 63.3555 20.7585 62.75 21.3438C62.1647 21.9089 61.6501 22.6152 61.2061 23.4629ZM72.4835 13.957C71.757 13.957 71.1313 13.6947 70.6066 13.1699C70.0818 12.6452 69.8195 12.0397 69.8195 11.3535C69.8195 10.627 70.0818 10.0114 70.6066 9.50684C71.1313 9.00228 71.757 8.75 72.4835 8.75C72.9679 8.75 73.4119 8.87109 73.8155 9.11328C74.2192 9.33529 74.5421 9.64811 74.7843 10.0518C75.0265 10.4352 75.1476 10.8691 75.1476 11.3535C75.1476 11.7975 75.0265 12.2214 74.7843 12.625C74.5421 13.0286 74.2192 13.3516 73.8155 13.5938C73.4119 13.8359 72.9679 13.957 72.4835 13.957ZM70.9396 32V16.7119H74.7843V32H70.9396ZM68.4874 19.9814V16.7119H74.7843V19.9814H68.4874ZM84.0032 32L76.8586 16.7119H81.3391L85.1838 26.1875L89.2102 16.7119H93.6907L86.4553 32H84.0032ZM100.609 32.4541C99.3978 32.4541 98.2676 32.1413 97.2181 31.5156C96.1888 30.89 95.3513 29.9818 94.7054 28.791C94.0798 27.6003 93.767 26.1572 93.767 24.4619C93.767 22.7464 94.0798 21.2832 94.7054 20.0723C95.3513 18.8613 96.209 17.9329 97.2787 17.2871C98.3685 16.6413 99.5694 16.3184 100.881 16.3184C101.729 16.3184 102.566 16.5101 103.394 16.8936C104.242 17.277 104.948 17.7917 105.513 18.4375V16.7119H109.358V32H105.513V29.4268C105.069 30.2542 104.423 30.9707 103.576 31.5762C102.728 32.1615 101.739 32.4541 100.609 32.4541ZM101.577 28.6094C102.264 28.6094 102.899 28.4277 103.485 28.0645C104.09 27.7012 104.585 27.1865 104.968 26.5205C105.352 25.8545 105.533 25.0674 105.513 24.1592V21.9795C104.968 21.3942 104.373 20.93 103.727 20.5869C103.101 20.2438 102.415 20.0723 101.668 20.0723C100.861 20.0723 100.165 20.2842 99.5795 20.708C99.0143 21.1117 98.5703 21.6465 98.2474 22.3125C97.9245 22.9785 97.763 23.695 97.763 24.4619C97.763 25.2087 97.9245 25.9049 98.2474 26.5508C98.5703 27.1764 99.0143 27.681 99.5795 28.0645C100.165 28.4277 100.831 28.6094 101.577 28.6094ZM113.46 32V10.2031H117.305V32H113.46ZM129.84 39.2656V16.7119H133.684V19.2852C134.128 18.4577 134.774 17.7614 135.622 17.1963C136.469 16.611 137.458 16.3184 138.589 16.3184C139.82 16.3184 140.95 16.6312 141.979 17.2568C143.029 17.8623 143.866 18.7503 144.492 19.9209C145.118 21.0915 145.43 22.5345 145.43 24.25C145.43 25.9453 145.107 27.4085 144.462 28.6396C143.836 29.8506 142.978 30.7891 141.888 31.4551C140.819 32.1211 139.628 32.4541 138.316 32.4541C137.468 32.4541 136.621 32.2523 135.773 31.8486C134.946 31.4248 134.249 30.9001 133.684 30.2744V39.2656H129.84ZM137.529 28.7002C138.336 28.7002 139.023 28.4883 139.588 28.0645C140.173 27.6406 140.627 27.0856 140.95 26.3994C141.273 25.7132 141.434 24.9967 141.434 24.25C141.434 23.4629 141.273 22.7666 140.95 22.1611C140.627 21.5557 140.183 21.0713 139.618 20.708C139.053 20.3447 138.387 20.1631 137.62 20.1631C136.954 20.1631 136.318 20.3447 135.713 20.708C135.107 21.0511 134.613 21.5456 134.229 22.1914C133.866 22.8372 133.684 23.6143 133.684 24.5225V26.7324C134.249 27.2975 134.845 27.7718 135.47 28.1553C136.096 28.5186 136.782 28.7002 137.529 28.7002ZM155.588 32.4541C154.478 32.4541 153.428 32.2523 152.439 31.8486C151.471 31.4248 150.603 30.8496 149.836 30.123C149.069 29.3965 148.473 28.5488 148.05 27.5801C147.626 26.5911 147.414 25.5316 147.414 24.4014C147.414 23.2712 147.626 22.2217 148.05 21.2529C148.473 20.264 149.069 19.4062 149.836 18.6797C150.603 17.9329 151.471 17.3577 152.439 16.9541C153.428 16.5303 154.478 16.3184 155.588 16.3184C156.698 16.3184 157.747 16.5303 158.736 16.9541C159.725 17.3577 160.593 17.9329 161.34 18.6797C162.107 19.4062 162.702 20.264 163.126 21.2529C163.57 22.2217 163.792 23.2712 163.792 24.4014C163.792 25.5316 163.57 26.5911 163.126 27.5801C162.702 28.5488 162.107 29.3965 161.34 30.123C160.593 30.8496 159.725 31.4248 158.736 31.8486C157.747 32.2523 156.698 32.4541 155.588 32.4541ZM155.588 28.7305C156.334 28.7305 157.011 28.569 157.616 28.2461C158.242 27.903 158.746 27.4085 159.13 26.7627C159.513 26.0967 159.705 25.3096 159.705 24.4014C159.705 23.4528 159.513 22.6556 159.13 22.0098C158.746 21.3639 158.242 20.8796 157.616 20.5566C157.011 20.2135 156.334 20.042 155.588 20.042C154.881 20.042 154.205 20.2135 153.559 20.5566C152.934 20.8796 152.429 21.3639 152.046 22.0098C151.682 22.6556 151.501 23.4528 151.501 24.4014C151.501 25.3096 151.682 26.0967 152.046 26.7627C152.429 27.4085 152.934 27.903 153.559 28.2461C154.205 28.569 154.881 28.7305 155.588 28.7305ZM166.805 32V10.2031H170.649V32H166.805ZM177.87 13.957C177.144 13.957 176.518 13.6947 175.993 13.1699C175.469 12.6452 175.206 12.0397 175.206 11.3535C175.206 10.627 175.469 10.0114 175.993 9.50684C176.518 9.00228 177.144 8.75 177.87 8.75C178.355 8.75 178.799 8.87109 179.202 9.11328C179.606 9.33529 179.929 9.64811 180.171 10.0518C180.413 10.4352 180.534 10.8691 180.534 11.3535C180.534 11.7975 180.413 12.2214 180.171 12.625C179.929 13.0286 179.606 13.3516 179.202 13.5938C178.799 13.8359 178.355 13.957 177.87 13.957ZM176.326 32V16.7119H180.171V32H176.326ZM173.874 19.9814V16.7119H180.171V19.9814H173.874ZM190.631 32.4541C189.723 32.4541 188.895 32.2523 188.149 31.8486C187.422 31.445 186.847 30.8799 186.423 30.1533C185.999 29.4066 185.787 28.5286 185.787 27.5195V19.9209H183.244V17.9531C184.233 17.61 185.041 16.9743 185.666 16.0459C186.312 15.1175 186.877 13.957 187.362 12.5645H189.632V16.7119H194.234V19.9209H189.632V26.5205C189.632 27.2067 189.804 27.7516 190.147 28.1553C190.51 28.5387 191.035 28.7305 191.721 28.7305C192.326 28.7305 192.851 28.6396 193.295 28.458C193.739 28.2764 194.133 28.0846 194.476 27.8828V31.1523C194.113 31.5358 193.598 31.8486 192.932 32.0908C192.286 32.333 191.519 32.4541 190.631 32.4541ZM200.94 13.957C200.213 13.957 199.588 13.6947 199.063 13.1699C198.538 12.6452 198.276 12.0397 198.276 11.3535C198.276 10.627 198.538 10.0114 199.063 9.50684C199.588 9.00228 200.213 8.75 200.94 8.75C201.424 8.75 201.868 8.87109 202.272 9.11328C202.675 9.33529 202.998 9.64811 203.241 10.0518C203.483 10.4352 203.604 10.8691 203.604 11.3535C203.604 11.7975 203.483 12.2214 203.241 12.625C202.998 13.0286 202.675 13.3516 202.272 13.5938C201.868 13.8359 201.424 13.957 200.94 13.957ZM199.396 32V16.7119H203.241V32H199.396ZM196.944 19.9814V16.7119H203.241V19.9814H196.944ZM214.336 32.4541C213.186 32.4541 212.116 32.2422 211.127 31.8184C210.159 31.3945 209.311 30.8092 208.584 30.0625C207.858 29.3158 207.293 28.458 206.889 27.4893C206.506 26.5205 206.314 25.5013 206.314 24.4316C206.314 23.362 206.506 22.3428 206.889 21.374C207.293 20.4053 207.858 19.5475 208.584 18.8008C209.311 18.0339 210.159 17.4284 211.127 16.9844C212.116 16.5404 213.186 16.3184 214.336 16.3184C215.487 16.3184 216.415 16.5 217.122 16.8633C217.848 17.2266 218.423 17.5798 218.847 17.9229V21.4648C218.322 21.0814 217.727 20.7585 217.061 20.4961C216.415 20.2337 215.618 20.1025 214.669 20.1025C213.902 20.1025 213.186 20.2943 212.52 20.6777C211.874 21.0612 211.359 21.5758 210.976 22.2217C210.593 22.8675 210.401 23.6042 210.401 24.4316C210.401 25.2591 210.582 25.9958 210.946 26.6416C211.309 27.2874 211.814 27.8021 212.459 28.1855C213.125 28.5488 213.862 28.7305 214.669 28.7305C215.618 28.7305 216.415 28.5993 217.061 28.3369C217.727 28.0745 218.322 27.7617 218.847 27.3984V30.9102C218.423 31.2734 217.848 31.6266 217.122 31.9697C216.415 32.2926 215.487 32.4541 214.336 32.4541ZM225.826 32.4541C225.14 32.4541 224.463 32.3734 223.797 32.2119C223.131 32.0706 222.516 31.8789 221.951 31.6367C221.406 31.3945 220.962 31.1523 220.619 30.9102V27.5498C221.002 27.8122 221.466 28.0645 222.011 28.3066C222.556 28.5488 223.121 28.7507 223.707 28.9121C224.292 29.0534 224.827 29.124 225.311 29.124C226.078 29.124 226.663 28.9827 227.067 28.7002C227.491 28.4176 227.703 28.0342 227.703 27.5498C227.703 27.1663 227.531 26.8636 227.188 26.6416C226.845 26.4196 226.34 26.1976 225.674 25.9756L223.797 25.3096C222.647 24.9261 221.84 24.3812 221.376 23.6748C220.932 22.9684 220.71 22.1309 220.71 21.1621C220.71 20.1934 220.952 19.3558 221.436 18.6494C221.941 17.9229 222.637 17.3577 223.525 16.9541C224.433 16.5303 225.452 16.3184 226.583 16.3184C227.531 16.3184 228.409 16.4596 229.216 16.7422C230.044 17.0046 230.669 17.3275 231.093 17.7109V21.1016C230.629 20.7786 230.044 20.4658 229.337 20.1631C228.651 19.8604 227.925 19.709 227.158 19.709C226.431 19.709 225.856 19.8704 225.432 20.1934C225.008 20.5163 224.796 20.8997 224.796 21.3438C224.796 21.6667 224.918 21.9694 225.16 22.252C225.422 22.5143 225.886 22.7464 226.552 22.9482L228.278 23.5234C229.469 23.8665 230.347 24.3812 230.912 25.0674C231.477 25.7334 231.759 26.5609 231.759 27.5498C231.759 28.4782 231.487 29.3158 230.942 30.0625C230.417 30.8092 229.701 31.3945 228.793 31.8184C227.905 32.2422 226.916 32.4541 225.826 32.4541Z" fill="black"/>
<path d="M238.94 17.2197C238.354 17.2197 237.808 17.0684 237.3 16.7656C236.802 16.4629 236.396 16.0234 236.084 15.4473C235.781 14.8711 235.63 14.1729 235.63 13.3525C235.63 12.5225 235.781 11.8145 236.084 11.2285C236.396 10.6426 236.812 10.1934 237.329 9.88086C237.856 9.56836 238.438 9.41211 239.072 9.41211C239.482 9.41211 239.888 9.50488 240.288 9.69043C240.698 9.87598 241.04 10.125 241.313 10.4375V6.45312H243.174V17H241.313V15.7549C241.099 16.1553 240.786 16.502 240.376 16.7949C239.966 17.0781 239.487 17.2197 238.94 17.2197ZM239.409 15.3594C239.741 15.3594 240.049 15.2715 240.332 15.0957C240.625 14.9199 240.864 14.6709 241.05 14.3486C241.235 14.0264 241.323 13.6455 241.313 13.2061V12.1514C241.05 11.8682 240.762 11.6484 240.449 11.4922C240.146 11.3262 239.814 11.2432 239.453 11.2432C239.062 11.2432 238.726 11.3457 238.442 11.5508C238.169 11.7461 237.954 12.0049 237.798 12.3271C237.642 12.6396 237.563 12.9814 237.563 13.3525C237.563 13.7139 237.642 14.0508 237.798 14.3633C237.954 14.666 238.169 14.9102 238.442 15.0957C238.726 15.2715 239.048 15.3594 239.409 15.3594ZM248.601 17.2197C248.064 17.2197 247.556 17.1221 247.078 16.9268C246.609 16.7217 246.189 16.4434 245.818 16.0918C245.447 15.7402 245.159 15.3301 244.954 14.8613C244.749 14.3828 244.646 13.8701 244.646 13.3232C244.646 12.7764 244.749 12.2686 244.954 11.7998C245.159 11.3213 245.447 10.9062 245.818 10.5547C246.189 10.1934 246.609 9.91504 247.078 9.71973C247.556 9.51465 248.064 9.41211 248.601 9.41211C249.138 9.41211 249.646 9.51465 250.125 9.71973C250.603 9.91504 251.023 10.1934 251.385 10.5547C251.756 10.9062 252.044 11.3213 252.249 11.7998C252.464 12.2686 252.571 12.7764 252.571 13.3232C252.571 13.8701 252.464 14.3828 252.249 14.8613C252.044 15.3301 251.756 15.7402 251.385 16.0918C251.023 16.4434 250.603 16.7217 250.125 16.9268C249.646 17.1221 249.138 17.2197 248.601 17.2197ZM248.601 15.418C248.963 15.418 249.29 15.3398 249.583 15.1836C249.886 15.0176 250.13 14.7783 250.315 14.4658C250.501 14.1436 250.594 13.7627 250.594 13.3232C250.594 12.8643 250.501 12.4785 250.315 12.166C250.13 11.8535 249.886 11.6191 249.583 11.4629C249.29 11.2969 248.963 11.2139 248.601 11.2139C248.26 11.2139 247.932 11.2969 247.62 11.4629C247.317 11.6191 247.073 11.8535 246.887 12.166C246.712 12.4785 246.624 12.8643 246.624 13.3232C246.624 13.7627 246.712 14.1436 246.887 14.4658C247.073 14.7783 247.317 15.0176 247.62 15.1836C247.932 15.3398 248.26 15.418 248.601 15.418ZM257.398 17.2197C256.841 17.2197 256.324 17.1172 255.845 16.9121C255.377 16.707 254.966 16.4238 254.615 16.0625C254.263 15.7012 253.99 15.2861 253.795 14.8174C253.609 14.3486 253.516 13.8555 253.516 13.3379C253.516 12.8203 253.609 12.3271 253.795 11.8584C253.99 11.3896 254.263 10.9746 254.615 10.6133C254.966 10.2422 255.377 9.94922 255.845 9.73438C256.324 9.51953 256.841 9.41211 257.398 9.41211C257.955 9.41211 258.404 9.5 258.746 9.67578C259.097 9.85156 259.376 10.0225 259.581 10.1885V11.9023C259.327 11.7168 259.039 11.5605 258.716 11.4336C258.404 11.3066 258.018 11.2432 257.559 11.2432C257.188 11.2432 256.841 11.3359 256.519 11.5215C256.207 11.707 255.958 11.9561 255.772 12.2686C255.587 12.5811 255.494 12.9375 255.494 13.3379C255.494 13.7383 255.582 14.0947 255.757 14.4072C255.933 14.7197 256.177 14.9688 256.49 15.1543C256.812 15.3301 257.169 15.418 257.559 15.418C258.018 15.418 258.404 15.3545 258.716 15.2275C259.039 15.1006 259.327 14.9492 259.581 14.7734V16.4727C259.376 16.6484 259.097 16.8193 258.746 16.9854C258.404 17.1416 257.955 17.2197 257.398 17.2197ZM262.957 17.2197C262.625 17.2197 262.298 17.1807 261.976 17.1025C261.654 17.0342 261.356 16.9414 261.082 16.8242C260.819 16.707 260.604 16.5898 260.438 16.4727V14.8467C260.623 14.9736 260.848 15.0957 261.112 15.2129C261.375 15.3301 261.649 15.4277 261.932 15.5059C262.215 15.5742 262.474 15.6084 262.708 15.6084C263.079 15.6084 263.363 15.54 263.558 15.4033C263.763 15.2666 263.866 15.0811 263.866 14.8467C263.866 14.6611 263.783 14.5146 263.617 14.4072C263.451 14.2998 263.206 14.1924 262.884 14.085L261.976 13.7627C261.419 13.5771 261.029 13.3135 260.804 12.9717C260.589 12.6299 260.482 12.2246 260.482 11.7559C260.482 11.2871 260.599 10.8818 260.833 10.54C261.078 10.1885 261.414 9.91504 261.844 9.71973C262.284 9.51465 262.777 9.41211 263.324 9.41211C263.783 9.41211 264.207 9.48047 264.598 9.61719C264.998 9.74414 265.301 9.90039 265.506 10.0859V11.7266C265.282 11.5703 264.998 11.4189 264.657 11.2725C264.325 11.126 263.973 11.0527 263.602 11.0527C263.25 11.0527 262.972 11.1309 262.767 11.2871C262.562 11.4434 262.459 11.6289 262.459 11.8438C262.459 12 262.518 12.1465 262.635 12.2832C262.762 12.4102 262.987 12.5225 263.309 12.6201L264.144 12.8984C264.72 13.0645 265.145 13.3135 265.418 13.6455C265.692 13.9678 265.829 14.3682 265.829 14.8467C265.829 15.2959 265.697 15.7012 265.433 16.0625C265.179 16.4238 264.832 16.707 264.393 16.9121C263.963 17.1172 263.485 17.2197 262.957 17.2197Z" fill="black" fill-opacity="0.59"/>
<defs>
<linearGradient id="paint0_linear_45_50" x1="17.0503" y1="24.2515" x2="17.0503" y2="43.4031" gradientUnits="userSpaceOnUse">
<stop stop-color="#1E91BC"/>
<stop offset="1" stop-color="#01AEF0"/>
</linearGradient>
<linearGradient id="paint1_linear_45_50" x1="30.3844" y1="18.1829" x2="30.3844" y2="38.2002" gradientUnits="userSpaceOnUse">
<stop stop-color="#1E91BC"/>
<stop offset="1" stop-color="#01AEF0"/>
</linearGradient>
<linearGradient id="paint2_linear_45_50" x1="28.6811" y1="10.3934" x2="28.6811" y2="25.4314" gradientUnits="userSpaceOnUse">
<stop stop-color="#1E91BC"/>
<stop offset="1" stop-color="#01AEF0"/>
</linearGradient>
<linearGradient id="paint3_linear_45_50" x1="21.1756" y1="0" x2="21.1756" y2="19.2593" gradientUnits="userSpaceOnUse">
<stop stop-color="#1E91BC"/>
<stop offset="1" stop-color="#01AEF0"/>
</linearGradient>
<linearGradient id="paint4_linear_45_50" x1="8.00074" y1="5.36987" x2="8.00074" y2="25.4591" gradientUnits="userSpaceOnUse">
<stop stop-color="#1E91BC"/>
<stop offset="1" stop-color="#01AEF0"/>
</linearGradient>
<linearGradient id="paint5_linear_45_50" x1="10.1186" y1="18.524" x2="10.1186" y2="33.6053" gradientUnits="userSpaceOnUse">
<stop stop-color="#1E91BC"/>
<stop offset="1" stop-color="#01AEF0"/>
</linearGradient>
</defs>
</svg>
