<svg width="122" height="131" viewBox="0 0 122 131" fill="none" xmlns="http://www.w3.org/2000/svg">
<g filter="url(#filter0_d_726_17)">
<path fill-rule="evenodd" clip-rule="evenodd" d="M89.3295 111.989C85.3766 106.682 77.3389 95.4316 76.8119 92.8842C76.153 89.7 76.8119 87.1526 78.7883 85.2421C79.4545 84.5982 80.2416 84.1857 81.0362 83.7694C82.1277 83.1974 83.2334 82.618 84.0589 81.4211C85.3767 79.5105 85.5083 72.1232 83.4001 70.5947C83.1936 70.445 82.7687 70.1873 82.1837 69.8326L82.1819 69.8316C79.4773 68.1915 73.3554 64.4795 69.5648 59.7684C68.129 57.5478 65.3163 54.1172 62.9818 51.2697C59.9604 47.5846 57.7397 44.8761 60.3413 47.0316L62.1502 48.5616C64.4111 50.4739 67.1888 51.724 70.1581 52.1655L74.1767 52.7632C74.1769 54.0368 74.4401 55.9474 75.4942 55.9474C75.8927 55.9474 76.9939 56.1293 78.3638 56.3557C80.6183 56.7282 83.6007 57.2211 85.3766 57.2211C86.6825 57.2211 86.8222 56.1395 86.9671 55.0181C87.0415 54.4422 87.1172 53.8558 87.353 53.4C87.6644 52.7982 88.1227 52.6229 88.5197 52.4711C88.9629 52.3016 89.3295 52.1614 89.3295 51.4895C89.3295 51.2096 89.3613 50.8374 89.397 50.4203C89.5236 48.9393 89.6987 46.8916 88.6707 46.3947C87.353 45.7579 84.7178 43.2105 83.4001 40.6632C82.3115 38.5587 81.223 32.1076 80.8774 29.21L80.8762 29.2C80.8042 28.5952 80.7648 28.1465 80.7648 27.9263C80.7648 27.1388 79.9778 26.8078 79.012 26.4041C78.4226 26.1577 77.898 25.792 77.4439 25.3531C76.731 24.6639 76.731 23.5466 77.4439 22.8574L77.5164 22.7874C77.9201 22.3972 78.4084 22.0984 78.9461 21.9128L85.5421 19.6357C86.4141 19.3347 86.7129 18.2715 86.1685 17.5475C85.8002 17.0578 85.4301 16.541 85.0479 16.0075C81.5946 11.1867 77.1628 5 64.2942 5C53.7531 5 47.165 7.54737 42.5531 10.7316C39.9213 12.5486 38.546 13.7967 36.8542 16.4632H18.1765C10.8993 16.4632 5 22.1657 5 29.2V113.263C5 120.298 10.8993 126 18.1765 126H103.824C111.101 126 117 120.298 117 113.263V29.2C117 22.1657 111.101 16.4632 103.824 16.4632H90.646C99.6662 21.8344 102.947 30.6673 102.506 34.9316V106.895C102.506 109.708 100.146 111.989 97.2353 111.989H89.3295ZM31.3531 111.989C35.6767 109.601 36.5259 108.892 39.8722 104.615C40.0953 104.33 40.3295 104.029 40.5766 103.711C44.5295 98.6158 43.2119 89.0632 42.5531 85.2421C42.1106 82.676 40.3702 78.7462 38.4839 74.5886L38.1051 73.7543C37.1395 71.6293 36.1562 69.4651 35.306 67.4105C33.9677 64.8234 32.9557 62.026 32.2256 59.0611C32.1796 58.8741 32.1347 58.6864 32.0909 58.4981C33.3672 57.3938 34.4103 56.4051 34.6471 55.9474C35.3059 54.6737 35.3059 51.4895 34.6471 51.4895C34.4821 51.4895 34.05 51.9509 33.4518 52.5896C32.8783 53.202 32.1521 53.9774 31.3622 54.6656C31.188 53.5074 31.0499 52.3289 30.9455 51.1323C30.9437 51.1119 33.6065 48.8145 34.9382 47.6684C35.597 46.3947 35.597 43.2105 34.9382 43.2105C34.6087 43.2105 32.9617 44.6434 31.3146 46.0763L30.7074 46.5466C30.6985 46.0736 30.6942 45.5984 30.6942 45.1211C30.6942 44.7566 30.6909 44.3965 30.6852 44.0403L30.6846 44.0029L30.6847 44.0055C32.6344 42.4018 34.6015 40.6771 34.9382 40.0263C35.597 38.7526 35.597 35.5684 34.9382 35.5684C34.6087 35.5684 32.9617 37.0013 31.3146 38.4342L31.3126 38.436C31.0403 38.6729 30.7681 38.9097 30.5018 39.1401L30.5021 39.1479C30.4874 38.8179 30.4734 38.49 30.4608 38.1635C30.4089 36.8183 30.3805 35.4993 30.4235 34.1771C30.4445 33.5327 30.4825 32.8876 30.5429 32.2383C30.5876 31.7594 30.6444 31.2782 30.7158 30.7933C30.7932 30.2671 30.8877 29.7366 31.0022 29.2H23.4471C20.5362 29.2 18.1765 31.481 18.1765 34.2947V106.895C18.1765 109.708 20.5362 111.989 23.4471 111.989H31.3531Z" fill="url(#paint0_linear_726_17)"/>
</g>
<defs>
<filter id="filter0_d_726_17" x="0" y="0" width="122" height="131" filterUnits="userSpaceOnUse" color-interpolation-filters="sRGB">
<feFlood flood-opacity="0" result="BackgroundImageFix"/>
<feColorMatrix in="SourceAlpha" type="matrix" values="0 0 0 0 0 0 0 0 0 0 0 0 0 0 0 0 0 0 127 0" result="hardAlpha"/>
<feOffset/>
<feGaussianBlur stdDeviation="2.5"/>
<feComposite in2="hardAlpha" operator="out"/>
<feColorMatrix type="matrix" values="0 0 0 0 0 0 0 0 0 0 0 0 0 0 0 0 0 0 0.25 0"/>
<feBlend mode="normal" in2="BackgroundImageFix" result="effect1_dropShadow_726_17"/>
<feBlend mode="normal" in="SourceGraphic" in2="effect1_dropShadow_726_17" result="shape"/>
</filter>
<linearGradient id="paint0_linear_726_17" x1="117" y1="5" x2="-3.63947" y2="116.666" gradientUnits="userSpaceOnUse">
<stop stop-color="#02B9FE"/>
<stop offset="1" stop-color="#005E81"/>
</linearGradient>
</defs>
</svg>
